#!OML:ASF I:\Actors\actors\Patient Classification 2\Patient 1\Session 1\actor1.ASF
:FULLY-SPECIFIED
:DEGREES
205
root -0.35507 18.7087 4.75647 0.700566 -1.92059 0.761318
lowerback 9.52496 0.580666 3.14754
upperback 2.18838 1.14373 1.89224
thorax -3.04252 0.548814 0.0537657
lowerneck -10.3785 -6.22755 -6.93351
upperneck 30.8574 -8.0904 2.09497
head 12.274 -4.15127 0.878531
rclavicle -3.57812e-015 -4.77083e-015
rhumerus -32.7537 11.4823 -90.461
rradius 94.7252
rwrist 7.73503
rhand -21.5682 -44.5951
rfingers 7.12502
rthumb 4.82576 -74.5202
lclavicle -3.57812e-015 -4.77083e-015
lhumerus -4.6521 -57.6293 99.2461
lradius 84.761
lwrist 33.5364
lhand -13.8098 -8.88732
lfingers 7.12502
lthumb 12.3125 20.7302
rfemur 0 0 0
rtibia 0
rfoot 0 0
rtoes 0
lfemur -7.2303 -1.03998 -15.857
ltibia 22.7701
lfoot -19.852 14.2842
ltoes -57.3798
206
root -0.337154 18.7098 4.74054 0.614743 -0.988469 0.776849
lowerback 9.72178 0.251862 3.76686
upperback 2.35433 0.777681 2.02201
thorax -2.97959 0.365788 -0.116379
lowerneck -10.4876 -6.30385 -7.14583
upperneck 30.738 -8.13641 2.09555
head 12.2634 -4.19205 0.904663
rclavicle -1.98785e-015 -2.54444e-014
rhumerus -30.1932 10.3221 -89.7186
rradius 93.2477
rwrist 7.78898
rhand -23.5713 -47.8669
rfingers 7.12502
rthumb 2.89139 -77.827
lclavicle -1.98785e-015 -2.54444e-014
lhumerus -3.37556 -58.2996 98.6214
lradius 85.4719
lwrist 32.6559
lhand -14.0912 -9.62283
lfingers 7.12502
lthumb 12.0412 20.0108
rfemur 0 0 0
rtibia 0
rfoot 0 0
rtoes 0
lfemur -7.38981 -1.35583 -15.8664
ltibia 22.8338
lfoot -19.5516 13.7704
ltoes -57.4412
207
root -0.326382 18.7142 4.72507 0.859356 -0.867661 0.860496
lowerback 9.6025 0.239225 4.06332
upperback 2.43656 0.783942 2.14096
thorax -2.82527 0.370524 -0.158732
lowerneck -10.5763 -6.4088 -7.22887
upperneck 30.5718 -8.21099 1.95905
head 12.2175 -4.24809 0.854923
rclavicle 1.98785e-014 3.4191e-014
rhumerus -27.5901 9.20934 -89.0135
rradius 91.6743
rwrist 7.40736
rhand -25.0852 -49.0559
rfingers 7.12502
rthumb 1.42924 -79.0309
lclavicle 1.98785e-014 3.4191e-014
lhumerus -2.28159 -58.8452 98.0828
lradius 86.1553
lwrist 31.728
lhand -14.2779 -10.3402
lfingers 7.12502
lthumb 11.8611 19.3038
rfemur 0 0 0
rtibia 0
rfoot 0 0
rtoes 0
lfemur -7.7593 -1.18261 -15.9683
ltibia 22.8703
lfoot -19.4814 13.5081
ltoes -57.3692
208
root -0.315309 18.7178 4.71095 1.08171 -0.739076 0.977462
lowerback 9.52581 0.208732 4.30107
upperback 2.47653 0.763508 2.24138
thorax -2.73988 0.361143 -0.184662
lowerneck -10.7008 -6.52168 -7.31699
upperneck 30.477 -8.28622 1.78843
head 12.2068 -4.30899 0.791084
rclavicle 1.37161e-014 1.11319e-014
rhumerus -25.0559 8.21199 -88.3458
rradius 89.7432
rwrist 7.56032
rhand -26.0497 -46.891
rfingers 7.12502
rthumb 0.497744 -76.8702
lclavicle 1.37161e-014 1.11319e-014
lhumerus -1.32195 -59.2966 97.5802
lradius 86.8105
lwrist 30.9443
lhand -14.5322 -10.7518
lfingers 7.12502
lthumb 11.6159 18.9062
rfemur 0 0 0
rtibia 0
rfoot 0 0
rtoes 0
lfemur -8.09391 -1.02115 -16.1193
ltibia 22.8814
lfoot -19.4063 13.2768
ltoes -57.2876
209
root -0.305391 18.7206 4.69751 1.2551 -0.595207 1.0293
lowerback 9.50875 0.189864 4.58154
upperback 2.48049 0.767607 2.34417
thorax -2.72346 0.362346 -0.235327
lowerneck -10.7266 -6.64074 -7.4437
upperneck 30.4094 -8.3884 1.67752
head 12.1933 -4.38026 0.755239
rclavicle -7.95139e-015 -1.27222e-014
rhumerus -22.5327 6.86628 -87.5481
rradius 88.4493
rwrist 5.31728
rhand -25.6814 -48.7305
rfingers 7.12502
rthumb 0.853503 -78.7085
lclavicle -7.95139e-015 -1.27222e-014
lhumerus -0.43693 -59.8247 97.0902
lradius 87.4499
lwrist 30.6719
lhand -14.8457 -10.9226
lfingers 7.12502
lthumb 11.3136 18.7523
rfemur 0 0 0
rtibia 0
rfoot 0 0
rtoes 0
lfemur -8.35724 -0.894968 -16.1926
ltibia 22.8698
lfoot -19.3282 13.0271
ltoes -57.1935
210
root -0.297894 18.7225 4.68293 1.32277 -0.501611 1.0751
lowerback 9.60807 0.208903 4.84874
upperback 2.49075 0.827376 2.42041
thorax -2.76236 0.390243 -0.313257
lowerneck -10.645 -6.75907 -7.52831
upperneck 30.3214 -8.52132 1.61285
head 12.1507 -4.45621 0.729667
rclavicle -1.35174e-014 -3.18055e-015
rhumerus -20.0428 5.46306 -86.8271
rradius 86.3684
rwrist 6.24567
rhand -25.2759 -48.2228
rfingers 7.12502
rthumb 1.24515 -78.1989
lclavicle -1.35174e-014 -3.18055e-015
lhumerus 0.383368 -60.4872 96.5695
lradius 88.0853
lwrist 30.7398
lhand -15.1541 -11.0775
lfingers 7.12502
lthumb 11.0161 18.6134
rfemur 0 0 0
rtibia 0
rfoot 0 0
rtoes 0
lfemur -8.48762 -0.814074 -16.2505
ltibia 22.8534
lfoot -19.2536 12.8239
ltoes -57.1546
211
root -0.290523 18.7232 4.66698 1.24972 -0.381823 1.17429
lowerback 9.91188 0.234536 4.82086
upperback 2.49427 0.887661 2.64961
thorax -2.9286 0.417302 -0.0691638
lowerneck -10.5503 -6.86287 -7.73122
upperneck 30.2444 -8.58119 1.46291
head 12.1095 -4.52307 0.702733
rclavicle -7.95139e-016 3.49861e-014
rhumerus -17.4766 4.18241 -85.9102
rradius 84.6083
rwrist 4.29265
rhand -24.8767 -48.2134
rfingers 7.12502
rthumb 1.63065 -78.1869
lclavicle -7.95139e-016 3.49861e-014
lhumerus 1.10026 -61.0699 96.3213
lradius 88.6326
lwrist 30.5593
lhand -15.3722 -11.2866
lfingers 7.12502
lthumb 10.8057 18.4154
rfemur 0 0 0
rtibia 0
rfoot 0 0
rtoes 0
lfemur -8.47898 -0.867003 -16.372
ltibia 22.8548
lfoot -19.2001 12.7339
ltoes -57.0511
212
root -0.28119 18.7235 4.65764 1.22875 -0.205595 1.21284
lowerback 10.0452 0.231936 4.87197
upperback 2.51298 0.906445 2.88381
thorax -2.98526 0.425746 0.142427
lowerneck -10.4465 -6.93381 -7.91163
upperneck 30.1286 -8.59519 1.30075
head 12.0465 -4.56845 0.675381
rclavicle 3.37934e-015 -3.18055e-015
rhumerus -14.838 2.92398 -85.0785
rradius 82.8308
rwrist 1.86758
rhand -24.7119 -51.6762
rfingers 7.12502
rthumb 1.7898 -81.6484
lclavicle 3.37934e-015 -3.18055e-015
lhumerus 1.84738 -61.6573 95.9339
lradius 89.1652
lwrist 30.1109
lhand -15.4927 -11.4934
lfingers 7.12502
lthumb 10.6895 18.2147
rfemur 0 0 0
rtibia 0
rfoot 0 0
rtoes 0
lfemur -8.52628 -0.939888 -16.4417
ltibia 22.8741
lfoot -19.1238 12.6547
ltoes -56.9399
213
root -0.269975 18.7238 4.65266 1.33288 -0.00356101 1.17917
lowerback 9.98735 0.222167 5.09144
upperback 2.51289 0.918407 3.07205
thorax -2.95235 0.431338 0.214475
lowerneck -10.3744 -7.00646 -7.96607
upperneck 30.0264 -8.61813 1.07025
head 11.9849 -4.6117 0.599817
rclavicle 2.56432e-014 4.77083e-015
rhumerus -12.2246 1.73612 -84.3999
rradius 80.6997
rwrist 0.33283
rhand -24.5044 -52.8036
rfingers 7.12502
rthumb 1.99022 -82.7741
lclavicle 2.56432e-014 4.77083e-015
lhumerus 2.45431 -62.3155 95.4861
lradius 89.7919
lwrist 29.7257
lhand -15.7046 -11.5956
lfingers 7.12502
lthumb 10.4851 18.1229
rfemur 0 0 0
rtibia 0
rfoot 0 0
rtoes 0
lfemur -8.71842 -0.90153 -16.4393
ltibia 22.9211
lfoot -19.0669 12.455
ltoes -56.8852
